# xmcd
#
# Track frame offsets:
#	150
#	15910
#	38721
#	54338
#	72277
#	88288
#	106470
#	131785
#	144814
#
# Disc length: 2190 seconds
#
# Revision: 0
# Processed by: cddbd v1.4PL0 Copyright (c) Steve Scherf et al.
# Submitted via: audiograbber 1.81.03
#
DISCID=72088c09
DTITLE=Johnny Winter - White, Hot and Blue
DYEAR=1900
DGENRE=Blues
TTITLE0=Walkin' By Myself
TTITLE1=Slidin' In
TTITLE2=Divin' Duck
TTITLE3=One Step At A Time
TTITLE4=Nickel Blues
TTITLE5=E-Z Rider
TTITLE6=Last Night
TTITLE7=Messin' With The Kid
TTITLE8=Honest I Do
EXTD=
EXTT0=
EXTT1=
EXTT2=
EXTT3=
EXTT4=
EXTT5=
EXTT6=
EXTT7=
EXTT8=
PLAYORDER=
